<svg xmlns="http://www.w3.org/2000/svg" viewBox="0 0 141.21 134.84"><defs><style>.cls-1{fill:#d4d4d4;}.cls-2{fill:#c2c2c2;}.cls-3{fill:#f2f2f2;}.cls-12,.cls-4{fill:#fff;}.cls-5{fill:#ebebeb;}.cls-6{fill:#fefce8;}.cls-7{fill:#f0edd3;}.cls-8{fill:#bababa;}.cls-9{fill:#333;}.cls-10{fill:#e3b874;}.cls-11{fill:#ffe0c4;}.cls-12{stroke:#d4d4d4;stroke-miterlimit:10;stroke-width:1.14px;}.cls-13{fill:#270075;}.cls-14{fill:#9793ea;}.cls-15{fill:#807dc7;}.cls-16{fill:#303030;}.cls-17{fill:#dbd3bc;}.cls-18{fill:#ebe2c9;}.cls-19{fill:#f9f0d5;}</style></defs><title>BunnyHead-Front</title><g id="Layer_2" data-name="Layer 2"><g id="Layer_5" data-name="Layer 5"><path class="cls-1" d="M67.63,65.3c.34,5.35,11,9.52,10.58-1.45s5.5-31.2,5.5-31.2l.15.06a1.44,1.44,0,0,1,.26.09l.38.14.49.18a2.78,2.78,0,0,1,.28.1c8.48,3,48.63,16.44,49,.23.41-18.13-40.14-45.85-55.44-27.31-4.21,5.1-6.95,11.87-8.7,19C65.48,43.95,67.63,65.3,67.63,65.3Z"/><path class="cls-2" d="M83.72,32.65s-9.45-3.49-10.59-4.48c0,0,3.07,6.45,9.46,8.59Z"/><path class="cls-3" d="M70.13,25.14s2.09,3.71,13.59,7.5l.15.06a1.44,1.44,0,0,1,.26.09l.38.14c.16,0,.32.11.49.18a2.78,2.78,0,0,1,.28.1c8.48,3,48.63,16.44,49,.23.41-18.13-40.14-45.85-55.44-27.31C74.62,11.24,71.88,18,70.13,25.14Z"/><path class="cls-1" d="M66.64,65.3c-.34,5.35-11,9.52-10.58-1.45s-5.5-31.2-5.5-31.2l-.15.06a1.44,1.44,0,0,0-.26.09l-.38.14-.49.18a2.78,2.78,0,0,0-.28.1c-8.48,3-48.63,16.44-49,.23C-.41,15.31,40.15-12.41,55.44,6.13c4.21,5.1,6.95,11.87,8.7,19C68.79,43.95,66.64,65.3,66.64,65.3Z"/><path class="cls-4" d="M110.66,106.78c0,.69-.07,1.39-.11,2.08a25.16,25.16,0,0,1-23,23.58,280.53,280.53,0,0,1-44,0A24.92,24.92,0,0,1,22,116.08a20.91,20.91,0,0,1-.69-2.22,20,20,0,0,1-.43-2,22.55,22.55,0,0,1-.36-3.18l0-.89,0-.69c0-.67,0-1.33-.06-2A148.38,148.38,0,0,1,21.61,80l0-.2v0q.36-2.46.82-4.84.2-1.07.51-2.11c.09-.34.19-.68.31-1a20.93,20.93,0,0,1,.78-2A25.07,25.07,0,0,1,44.59,54.78a183.76,183.76,0,0,1,44,1.11,24.77,24.77,0,0,1,11.76,5h0a24.93,24.93,0,0,1,9.56,17.09A182.56,182.56,0,0,1,110.66,106.78Z"/><path class="cls-1" d="M52.27,96.06A19.66,19.66,0,0,1,41.51,113.6s0,0,0,0a19.66,19.66,0,0,1-20.65-1.77l.09-3.77L21.63,80v-.24a19.7,19.7,0,0,1,28.07,6.65h0A19.51,19.51,0,0,1,52.27,96.06Z"/><path class="cls-1" d="M50.25,90.9a19.31,19.31,0,0,1-1,6.15,19.68,19.68,0,0,1-28.32,11l-.49-.3a19.1,19.1,0,0,1-1.63-1.09l.64-25.6A19.22,19.22,0,0,1,21.61,80l0-.2v0q.36-2.46.82-4.84.2-1.07.51-2.11A19.68,19.68,0,0,1,49.71,86.37h0A19.18,19.18,0,0,1,50.25,90.9Z"/><path class="cls-1" d="M109.89,77.95a19.68,19.68,0,1,0-.28,36.35Z"/><path class="cls-5" d="M61,115.17s-1.89,13.4,5.29,17.05c0,0,1.5-15.65,1.51-16.22S61,115.17,61,115.17Z"/><path class="cls-5" d="M74.42,115.17s1.89,13.4-5.29,17.05c0,0-1.5-15.65-1.51-16.22S74.42,115.17,74.42,115.17Z"/><path class="cls-6" d="M67.86,111.52v21.65a1.7,1.7,0,0,1-1.67,1.67h-.52A1.67,1.67,0,0,1,64,133.45,183,183,0,0,1,62.23,114l5.18-2.31Z"/><path class="cls-6" d="M73.48,114a183,183,0,0,1-1.78,19.42,1.67,1.67,0,0,1-1.65,1.39h-.52a1.61,1.61,0,0,1-1.08-.42,1.59,1.59,0,0,1-.59-1.25V111.52l.59.27Z"/><path class="cls-7" d="M68.45,111.78v22.64a1.59,1.59,0,0,1-.59-1.25,1.6,1.6,0,0,1-.45,1.12V111.72l.45-.2Z"/><path class="cls-8" d="M82.06,107.51c0-10.82-14.2-8.37-14.2-8.37s-14.2-2.45-14.2,8.37c0,0,3.12.55,4.37,1.88,0,0-1.35,2,.86,5.06s7.73.59,9-1.25c1.25,1.84,6.77,4.34,9,1.25s.84-5.16.84-5.16C78.93,108,82.06,107.51,82.06,107.51Z"/><path class="cls-4" d="M82.06,107.24c0-10.82-14.2-9.79-14.2-9.79s-14.2-1-14.2,9.79c0,0,4.19-1.32,5.45,0a4.23,4.23,0,0,0-.22,5.52c2.21,3.09,7.73.59,9-1.25,1.25,1.84,6.77,4.34,9,1.25a4.23,4.23,0,0,0-.22-5.52C77.87,105.92,82.06,107.24,82.06,107.24Z"/><rect class="cls-8" x="67.35" y="105.17" width="1.1" height="7.86"/><path class="cls-9" d="M67.83,105.62c-2.68,0-4.84-2.86-4.83-5s2.2-2.84,4.89-2.82,4.84.72,4.83,2.89S70.51,105.64,67.83,105.62Z"/><path class="cls-10" d="M70.39,78A70.3,70.3,0,0,1,58.23,64.94a4.12,4.12,0,0,1,.58-5.41h0a4.05,4.05,0,0,1,6,.46,80.88,80.88,0,0,0,11,11.86,4.06,4.06,0,0,1,0,6h0A4.11,4.11,0,0,1,70.39,78Z"/><path class="cls-11" d="M67.94,65.27A33.59,33.59,0,0,0,71.36,69a1.55,1.55,0,0,1,0,2.29L69,73.46a1.54,1.54,0,0,1-2.1,0,40,40,0,0,1-3.8-4.09,1.54,1.54,0,0,1,.19-2.08l2.4-2.23A1.55,1.55,0,0,1,67.94,65.27Z"/><path class="cls-10" d="M77.1,67a70.3,70.3,0,0,1-15.44,9,4.12,4.12,0,0,1-5.16-1.74h0a4.05,4.05,0,0,1,1.75-5.76,80.87,80.87,0,0,0,14-8.16,4.06,4.06,0,0,1,5.88,1.3h0A4.11,4.11,0,0,1,77.1,67Z"/><path class="cls-11" d="M64.1,66.66a33.59,33.59,0,0,0,4.34-2.54,1.55,1.55,0,0,1,2.23.49l1.65,2.82a1.54,1.54,0,0,1-.43,2.06,40,40,0,0,1-4.81,2.82,1.54,1.54,0,0,1-2-.64l-1.65-2.83A1.55,1.55,0,0,1,64.1,66.66Z"/><circle class="cls-12" cx="32.59" cy="93.2" r="19.67"/><circle cx="34.04" cy="93.2" r="15.21"/><circle class="cls-13" cx="34.2" cy="93.2" r="9.1"/><circle class="cls-4" cx="38.89" cy="86.72" r="3.61"/><path class="cls-14" d="M49.4,103.73A19.68,19.68,0,0,1,13,93.44C12.4,93.92,40.41,103.28,49.4,103.73Z"/><path class="cls-15" d="M49.4,103.72a19.68,19.68,0,0,1-33.54,0C28.23,106.12,49.4,103.72,49.4,103.72Z"/><path class="cls-14" d="M52.22,91.67c-8.06-8.87-26.06-10.8-35.38-10a19.67,19.67,0,0,1,35.38,10Z"/><circle class="cls-12" cx="102.2" cy="93.2" r="19.67"/><circle cx="102.2" cy="93.2" r="15.21"/><circle class="cls-13" cx="102.2" cy="93.2" r="9.1"/><circle class="cls-4" cx="95.9" cy="86.72" r="3.61"/><ellipse class="cls-16" cx="28.63" cy="59.78" rx="15.05" ry="9.35" transform="translate(-11.84 7.29) rotate(-12.04)"/><ellipse class="cls-16" cx="106.13" cy="59.78" rx="9.2" ry="14.82" transform="translate(36.66 159.83) rotate(-84.62)"/><path class="cls-2" d="M50.54,32.65S60,29.16,61.13,28.17c0,0-3.07,6.45-9.46,8.59Z"/><path class="cls-3" d="M64.14,25.14S62,28.85,50.55,32.65l-.15.06a1.44,1.44,0,0,0-.26.09l-.38.14c-.16,0-.32.11-.49.18a2.78,2.78,0,0,0-.28.1c-8.48,3-48.63,16.44-49,.23C-.41,15.31,40.15-12.41,55.44,6.13,59.64,11.24,62.38,18,64.14,25.14Z"/><path class="cls-17" d="M139.57,37.44a14,14,0,0,1-7,6,19,19,0,0,1-2.42.83,21.59,21.59,0,0,1-2.14.48,27.51,27.51,0,0,1-3.14.38,39.72,39.72,0,0,1-4.51,0c-1.25-.06-2.52-.16-3.79-.32h-.06a1.41,1.41,0,0,1-.31,0c-1.34-.16-2.66-.36-4-.6l-.57-.1c-1.36-.26-2.69-.55-4-.86s-2.38-.6-3.49-.91c-1.36-.39-2.64-.78-3.8-1.16-2.15-.69-3.91-1.34-5.13-1.81s-1.82-.72-1.82-.72C89.65,16,102.08,7.88,108.71,5.19A21.34,21.34,0,0,1,112.59,4s2,.92,5,2.56l2,1.15c.59.34,1.22.72,1.85,1.1s1,.64,1.58,1l1.42.92c1.15.75,2.32,1.57,3.48,2.42l.09.07c.67.49,1.33,1,2,1.52l1.08.89c.45.38.91.76,1.34,1.16q1,.85,1.84,1.74a30.1,30.1,0,0,1,4.4,5.41l.42.71h0C141.48,28.69,142.12,33.06,139.57,37.44Z"/><path class="cls-18" d="M116.57,44.84c1.26.16,2.54.26,3.79.32a39.69,39.69,0,0,0,4.51,0c-1.57-6.91-1.8-18.17,9.45-26.64q-.89-.89-1.84-1.74c-.43-.4-.89-.78-1.34-1.16l-1.08-.89c-.66-.52-1.32-1-2-1.52L128,13.1c-1.16-.85-2.33-1.67-3.48-2.42a36.53,36.53,0,0,0-12.26,33.53Z"/><path class="cls-18" d="M107.69,43.24l.19,0c-2.15-9.7,5.73-25,13.61-34.41-.64-.39-1.26-.76-1.85-1.1l-2-1.15c-3-1.64-5-2.56-5-2.56a21.34,21.34,0,0,0-3.88,1.22,84.22,84.22,0,0,0-7.59,12.6c-2.81,5.76-5.75,13.68-5.84,21.58,1.22.47,3,1.11,5.13,1.81,1.16.38,2.43.77,3.8,1.16Z"/><path class="cls-19" d="M138.72,23.89c-4.13,6.79-6.42,14-6.15,19.54a19,19,0,0,1-2.42.83,21.59,21.59,0,0,1-2.14.48,27.51,27.51,0,0,1-3.14.38,39.72,39.72,0,0,1-4.51,0c-.92-10.1,3.46-21.32,9.7-30.47l1.08.89c.45.38.91.76,1.34,1.16q1,.85,1.84,1.74A30.1,30.1,0,0,1,138.72,23.89Z"/><path class="cls-19" d="M104.2,42.33c.25-11,6.23-25.55,13.4-35.8l2,1.15c.59.34,1.22.72,1.85,1.1s1,.64,1.58,1l1.42.92c1.15.75,2.32,1.57,3.48,2.42-7,9.69-12.44,24.3-11.4,31.74l-4.33-.64-.57-.1c-1.36-.26-2.69-.55-4-.86Z"/></g></g></svg>